<mxfile host="Electron" modified="2024-06-02T23:55:52.190Z" agent="Mozilla/5.0 (Windows NT 10.0; Win64; x64) AppleWebKit/537.36 (KHTML, like Gecko) draw.io/24.4.13 Chrome/124.0.6367.207 Electron/30.0.6 Safari/537.36" etag="aVptdsbf4zAESLO6JbPw" version="24.4.13" type="device">
  <diagram name="Страница — 1" id="wOaYu9fW-eazYa9mEALX">
    <mxGraphModel dx="757" dy="826" grid="1" gridSize="10" guides="1" tooltips="1" connect="1" arrows="1" fold="1" page="1" pageScale="1" pageWidth="827" pageHeight="1169" math="0" shadow="0">
      <root>
        <mxCell id="0" />
        <mxCell id="1" parent="0" />
        <mxCell id="-sKXi4_5PZKnhmcNhNP_-1" value="Начало" style="rounded=1;whiteSpace=wrap;html=1;arcSize=50;" vertex="1" parent="1">
          <mxGeometry x="330" y="32.5" width="120" height="15" as="geometry" />
        </mxCell>
        <mxCell id="-sKXi4_5PZKnhmcNhNP_-2" value="" style="endArrow=none;dashed=1;html=1;rounded=0;exitX=0;exitY=0.5;exitDx=0;exitDy=0;entryX=1;entryY=0.5;entryDx=0;entryDy=0;exitPerimeter=0;" edge="1" source="-sKXi4_5PZKnhmcNhNP_-3" parent="1" target="-sKXi4_5PZKnhmcNhNP_-1">
          <mxGeometry width="50" height="50" relative="1" as="geometry">
            <mxPoint x="560" y="50" as="sourcePoint" />
            <mxPoint x="540" y="50" as="targetPoint" />
          </mxGeometry>
        </mxCell>
        <mxCell id="-sKXi4_5PZKnhmcNhNP_-3" value="    Входные данные: mas, result index&#xa;    Выходные данные: output" style="strokeWidth=2;shape=mxgraph.flowchart.annotation_1;align=left;pointerEvents=1;recursiveResize=1;autosize=0;verticalAlign=middle;horizontal=1;" vertex="1" parent="1">
          <mxGeometry x="470" y="7.5" width="50" height="65" as="geometry" />
        </mxCell>
        <mxCell id="-sKXi4_5PZKnhmcNhNP_-7" value="output = new int[index];" style="rounded=0;whiteSpace=wrap;html=1;" vertex="1" parent="1">
          <mxGeometry x="320" y="60" width="140" height="20" as="geometry" />
        </mxCell>
        <mxCell id="-sKXi4_5PZKnhmcNhNP_-9" value="" style="endArrow=none;html=1;rounded=0;entryX=0.5;entryY=0;entryDx=0;entryDy=0;exitX=0.5;exitY=1;exitDx=0;exitDy=0;" edge="1" parent="1" source="-sKXi4_5PZKnhmcNhNP_-1" target="-sKXi4_5PZKnhmcNhNP_-7">
          <mxGeometry width="50" height="50" relative="1" as="geometry">
            <mxPoint x="410" y="170" as="sourcePoint" />
            <mxPoint x="420" y="140" as="targetPoint" />
          </mxGeometry>
        </mxCell>
        <mxCell id="-sKXi4_5PZKnhmcNhNP_-10" value="k = 0" style="rounded=0;whiteSpace=wrap;html=1;" vertex="1" parent="1">
          <mxGeometry x="330" y="90" width="120" height="20" as="geometry" />
        </mxCell>
        <mxCell id="-sKXi4_5PZKnhmcNhNP_-11" value="" style="endArrow=none;html=1;rounded=0;entryX=0.5;entryY=0;entryDx=0;entryDy=0;exitX=0.5;exitY=1;exitDx=0;exitDy=0;" edge="1" parent="1" target="-sKXi4_5PZKnhmcNhNP_-10" source="-sKXi4_5PZKnhmcNhNP_-7">
          <mxGeometry width="50" height="50" relative="1" as="geometry">
            <mxPoint x="360" y="270" as="sourcePoint" />
            <mxPoint x="370" y="240" as="targetPoint" />
          </mxGeometry>
        </mxCell>
        <mxCell id="-sKXi4_5PZKnhmcNhNP_-12" value="i = 0; length" style="strokeWidth=2;html=1;shape=mxgraph.flowchart.loop_limit;whiteSpace=wrap;" vertex="1" parent="1">
          <mxGeometry x="340" y="120" width="100" height="30" as="geometry" />
        </mxCell>
        <mxCell id="-sKXi4_5PZKnhmcNhNP_-13" value="i++" style="strokeWidth=2;html=1;shape=mxgraph.flowchart.loop_limit;whiteSpace=wrap;direction=west;" vertex="1" parent="1">
          <mxGeometry x="340" y="270" width="100" height="30" as="geometry" />
        </mxCell>
        <mxCell id="-sKXi4_5PZKnhmcNhNP_-14" value="" style="endArrow=none;html=1;rounded=0;entryX=0.5;entryY=1;entryDx=0;entryDy=0;exitX=0.5;exitY=0;exitDx=0;exitDy=0;exitPerimeter=0;" edge="1" parent="1" source="-sKXi4_5PZKnhmcNhNP_-12" target="-sKXi4_5PZKnhmcNhNP_-10">
          <mxGeometry width="50" height="50" relative="1" as="geometry">
            <mxPoint x="380" y="220" as="sourcePoint" />
            <mxPoint x="430" y="170" as="targetPoint" />
          </mxGeometry>
        </mxCell>
        <mxCell id="-sKXi4_5PZKnhmcNhNP_-16" value="if (mas[i] &amp;gt; result)" style="rhombus;whiteSpace=wrap;html=1;" vertex="1" parent="1">
          <mxGeometry x="320" y="170" width="140" height="40" as="geometry" />
        </mxCell>
        <mxCell id="-sKXi4_5PZKnhmcNhNP_-17" value="" style="endArrow=none;html=1;rounded=0;entryX=0.5;entryY=1;entryDx=0;entryDy=0;entryPerimeter=0;exitX=0.5;exitY=0;exitDx=0;exitDy=0;" edge="1" parent="1" source="-sKXi4_5PZKnhmcNhNP_-16" target="-sKXi4_5PZKnhmcNhNP_-12">
          <mxGeometry width="50" height="50" relative="1" as="geometry">
            <mxPoint x="380" y="220" as="sourcePoint" />
            <mxPoint x="430" y="170" as="targetPoint" />
          </mxGeometry>
        </mxCell>
        <mxCell id="-sKXi4_5PZKnhmcNhNP_-18" value="" style="endArrow=none;html=1;rounded=0;entryX=0;entryY=0.5;entryDx=0;entryDy=0;exitX=0.5;exitY=1;exitDx=0;exitDy=0;exitPerimeter=0;" edge="1" parent="1" source="-sKXi4_5PZKnhmcNhNP_-13" target="-sKXi4_5PZKnhmcNhNP_-16">
          <mxGeometry width="50" height="50" relative="1" as="geometry">
            <mxPoint x="400" y="210" as="sourcePoint" />
            <mxPoint x="450" y="160" as="targetPoint" />
            <Array as="points">
              <mxPoint x="390" y="260" />
              <mxPoint x="280" y="260" />
              <mxPoint x="280" y="190" />
            </Array>
          </mxGeometry>
        </mxCell>
        <mxCell id="-sKXi4_5PZKnhmcNhNP_-19" value="" style="endArrow=none;html=1;rounded=0;entryX=1;entryY=0.5;entryDx=0;entryDy=0;exitX=0.5;exitY=1;exitDx=0;exitDy=0;exitPerimeter=0;" edge="1" parent="1" source="-sKXi4_5PZKnhmcNhNP_-13" target="-sKXi4_5PZKnhmcNhNP_-16">
          <mxGeometry width="50" height="50" relative="1" as="geometry">
            <mxPoint x="400" y="210" as="sourcePoint" />
            <mxPoint x="450" y="160" as="targetPoint" />
            <Array as="points">
              <mxPoint x="390" y="260" />
              <mxPoint x="500" y="260" />
              <mxPoint x="500" y="190" />
            </Array>
          </mxGeometry>
        </mxCell>
        <mxCell id="-sKXi4_5PZKnhmcNhNP_-20" value="output[k++] = mas[i]" style="rounded=0;whiteSpace=wrap;html=1;" vertex="1" parent="1">
          <mxGeometry x="440" y="210" width="120" height="20" as="geometry" />
        </mxCell>
        <mxCell id="-sKXi4_5PZKnhmcNhNP_-21" value="Да" style="text;html=1;align=center;verticalAlign=middle;whiteSpace=wrap;rounded=0;" vertex="1" parent="1">
          <mxGeometry x="450" y="160" width="60" height="30" as="geometry" />
        </mxCell>
        <mxCell id="-sKXi4_5PZKnhmcNhNP_-23" value="Нет" style="text;html=1;align=center;verticalAlign=middle;whiteSpace=wrap;rounded=0;" vertex="1" parent="1">
          <mxGeometry x="270" y="160" width="60" height="30" as="geometry" />
        </mxCell>
        <mxCell id="-sKXi4_5PZKnhmcNhNP_-24" value="" style="endArrow=none;html=1;rounded=0;entryX=0.5;entryY=0;entryDx=0;entryDy=0;entryPerimeter=0;exitX=0.5;exitY=0;exitDx=0;exitDy=0;" edge="1" parent="1" source="-sKXi4_5PZKnhmcNhNP_-25" target="-sKXi4_5PZKnhmcNhNP_-13">
          <mxGeometry width="50" height="50" relative="1" as="geometry">
            <mxPoint x="390" y="320" as="sourcePoint" />
            <mxPoint x="410" y="370" as="targetPoint" />
          </mxGeometry>
        </mxCell>
        <mxCell id="-sKXi4_5PZKnhmcNhNP_-25" value="Конец" style="rounded=1;whiteSpace=wrap;html=1;arcSize=50;" vertex="1" parent="1">
          <mxGeometry x="330" y="310" width="120" height="20" as="geometry" />
        </mxCell>
      </root>
    </mxGraphModel>
  </diagram>
</mxfile>
